# File created by Blade
# Date/Time:  Wed Apr 08 17:24:36 2015
# Frame Rate: 120.000 fps
#------------------------------------------------------
:FULLY-SPECIFIED
:DEGREES
1476
root -0.747088 36.494363 3.748335 172.238337 -82.877218 -193.176952
Spine 30.972817 5.081531 2.159015
Head 13.487966 20.705478 3.148330
LeftShoulder -8.821165 12.390349 24.661000
LeftArm 15.201350 -18.034864 -48.815000
LeftForeArm 15.274576 -0.000000 28.267855
LeftHand -14.438466 -0.000000 -12.471988
LeftHandThumb1 -26.253704 0.000000 33.147579
RightShoulder -28.590495 -42.836670 2.801862
RightArm 50.533424 27.716950 72.043636
RightForeArm 9.903825 -0.000000 7.313277
RightHand -2.157679 0.000000 0.017156
RightHandThumb1 -24.326973 -0.000000 -32.862282
LeftUpLeg 21.152619 11.783789 3.633290
LeftLeg 2.172078 -0.000000 -0.000000
LeftFoot -3.064032 1.457016 -9.550767
LeftToeBase 8.556873 -0.000000 -0.000000
RightUpLeg 25.744717 -2.090840 -18.273566
RightLeg 15.042772 -0.000000 -0.000000
RightFoot -9.645738 2.856497 13.089533
RightToeBase -15.544598 -0.000000 0.000000
1477
root -0.667997 36.478872 3.595085 173.619826 -83.095685 -194.625724
Spine 31.025315 5.119559 1.856236
Head 12.863782 21.100497 2.870333
LeftShoulder -8.927941 12.358824 24.603133
LeftArm 14.918612 -19.043692 -47.567701
LeftForeArm 14.983098 0.000000 27.970580
LeftHand -14.638286 0.000000 -11.828269
LeftHandThumb1 -26.253704 0.000000 33.147579
RightShoulder -28.546573 -42.778959 2.310357
RightArm 50.467611 28.823061 71.880226
RightForeArm 10.481768 -0.000000 7.221133
RightHand -2.038271 -0.000000 -0.145199
RightHandThumb1 -24.326973 -0.000000 -32.862282
LeftUpLeg 21.168103 11.630725 3.740952
LeftLeg 1.986740 -0.000000 -0.000000
LeftFoot -2.844452 1.301799 -9.777353
LeftToeBase 8.503656 -0.000000 -0.000000
RightUpLeg 25.876353 -1.982657 -18.072162
RightLeg 14.532700 -0.000000 -0.000000
RightFoot -7.841870 2.616634 12.971939
RightToeBase -15.649355 -0.000000 0.000000
1478
root -0.577431 36.459268 3.445809 175.497230 -83.320346 -196.474577
Spine 30.977329 5.152303 1.540340
Head 12.334003 21.467974 2.532799
LeftShoulder -9.008948 12.305714 24.546994
LeftArm 14.641076 -20.048170 -46.422306
LeftForeArm 14.723081 -0.000000 27.658381
LeftHand -14.827706 -0.000000 -11.095690
LeftHandThumb1 -26.253704 0.000000 33.147579
RightShoulder -28.512798 -42.742886 1.827725
RightArm 50.504315 29.975603 71.843408
RightForeArm 11.005701 0.000000 7.159968
RightHand -1.915889 -0.000000 -0.324304
RightHandThumb1 -24.326973 -0.000000 -32.862282
LeftUpLeg 20.993231 11.534665 3.795897
LeftLeg 1.932683 -0.000000 -0.000000
LeftFoot -2.651256 1.150226 -9.887170
LeftToeBase 8.275970 -0.000000 -0.000000
RightUpLeg 25.886931 -1.862138 -17.858452
RightLeg 14.080070 -0.000000 -0.000000
RightFoot -5.975956 2.582315 12.994227
RightToeBase -15.380364 -0.000000 0.000000
1479
root -0.474751 36.433963 3.301647 178.163509 -83.530382 -199.011329
Spine 30.815619 5.192920 1.169327
Head 11.865471 21.837856 2.156210
LeftShoulder -9.053430 12.232963 24.513424
LeftArm 14.340197 -21.155389 -45.410766
LeftForeArm 14.622050 0.000000 27.383824
LeftHand -14.936942 0.000000 -10.425985
LeftHandThumb1 -26.253704 0.000000 33.147579
RightShoulder -28.478911 -42.770210 1.350606
RightArm 50.587727 31.034747 71.759800
RightForeArm 11.562102 -0.000000 7.109128
RightHand -1.988802 0.000000 -0.664340
RightHandThumb1 -24.326973 -0.000000 -32.862282
LeftUpLeg 20.627066 11.394107 3.730597
LeftLeg 1.986026 -0.000000 -0.000000
LeftFoot -2.523233 0.977061 -10.049856
LeftToeBase 8.216587 -0.000000 -0.000000
RightUpLeg 25.753320 -1.623741 -17.622505
RightLeg 13.718591 -0.000000 -0.000000
RightFoot -4.216623 2.913767 13.862160
RightToeBase -14.351602 -0.000000 0.000000
1480
root -0.348128 36.398357 3.162808 182.188188 -83.737286 -202.558178
Spine 30.255849 5.216941 0.666972
Head 11.492029 22.266930 1.753701
LeftShoulder -9.106365 12.150606 24.476383
LeftArm 14.048796 -22.252604 -44.455630
LeftForeArm 14.568628 0.000000 27.092073
LeftHand -15.058291 0.000000 -9.808938
LeftHandThumb1 -26.253704 0.000000 33.147579
RightShoulder -28.426025 -42.739700 0.859612
RightArm 50.473898 31.873326 71.386128
RightForeArm 12.265654 -0.000000 7.084070
RightHand -1.812142 -0.000000 -0.899089
RightHandThumb1 -24.326973 -0.000000 -32.862282
LeftUpLeg 19.772850 11.234687 3.471405
LeftLeg 2.192616 -0.000000 -0.000000
LeftFoot -2.490774 0.866818 -10.248686
LeftToeBase 8.185826 -0.000000 -0.000000
RightUpLeg 25.230962 -1.413764 -17.439593
RightLeg 13.564380 -0.000000 -0.000000
RightFoot -4.250552 3.333739 16.173071
RightToeBase -12.262521 -0.000000 0.000000
1481
root -0.218234 36.364270 3.023950 186.329423 -83.910984 -206.242702
Spine 29.723055 5.272552 0.229690
Head 11.182199 22.584823 1.284048
LeftShoulder -9.077764 11.997900 24.466146
LeftArm 13.739309 -23.350134 -43.592777
LeftForeArm 14.576274 -0.000000 26.781944
LeftHand -15.165117 -0.000000 -9.252157
LeftHandThumb1 -26.253704 0.000000 33.147579
RightShoulder -28.365599 -42.694611 0.338886
RightArm 50.225276 32.648860 70.904019
RightForeArm 12.850917 -0.000000 7.160049
RightHand -1.717953 -0.000000 -1.146515
RightHandThumb1 -24.326973 -0.000000 -32.862282
LeftUpLeg 18.903795 11.048160 3.227564
LeftLeg 2.463105 -0.000000 -0.000000
LeftFoot -2.514785 0.761914 -10.669003
LeftToeBase 8.059816 -0.000000 -0.000000
RightUpLeg 24.723779 -1.406547 -17.313495
RightLeg 13.455911 -0.000000 -0.000000
RightFoot -5.791644 2.560590 16.723896
RightToeBase -10.663918 -0.000000 0.000000
1482
root -0.078686 36.325076 2.888818 191.121612 -84.067556 -210.422860
Spine 29.018458 5.262823 -0.237006
Head 10.923296 22.931988 0.761810
LeftShoulder -9.104919 11.869703 24.400933
LeftArm 13.496016 -24.547706 -42.829494
LeftForeArm 14.736041 -0.000000 26.491470
LeftHand -15.256610 0.000000 -8.786054
LeftHandThumb1 -26.253704 0.000000 33.147579
RightShoulder -28.315816 -42.672717 -0.178471
RightArm 50.025522 33.337348 70.338874
RightForeArm 13.226832 -0.000000 7.203185
RightHand -1.637153 0.000000 -1.443241
RightHandThumb1 -24.326973 -0.000000 -32.862282
LeftUpLeg 17.815004 10.786788 2.891395
LeftLeg 2.816695 -0.000000 -0.000000
LeftFoot -2.679809 0.740593 -11.193718
LeftToeBase 7.704531 -0.000000 -0.000000
RightUpLeg 24.082115 -1.392725 -17.220837
RightLeg 13.362409 -0.000000 -0.000000
RightFoot -6.856427 2.301729 17.990802
RightToeBase -7.704445 -0.000000 0.000000
1483
root 0.064297 36.284470 2.756173 196.455482 -84.206447 -215.085261
Spine 28.241200 5.258510 -0.694430
Head 10.722908 23.225014 0.189319
LeftShoulder -9.115655 11.735916 24.368941
LeftArm 13.329661 -25.648841 -42.150193
LeftForeArm 14.884877 -0.000000 26.199348
LeftHand -15.367950 -0.000000 -8.423037
LeftHandThumb1 -26.253704 0.000000 33.147579
RightShoulder -28.223889 -42.614292 -0.718798
RightArm 49.700520 34.070237 69.741771
RightForeArm 13.244815 0.000000 7.323880
RightHand -1.751080 -0.000000 -1.492307
RightHandThumb1 -24.326973 -0.000000 -32.862282
LeftUpLeg 16.634905 10.480653 2.525113
LeftLeg 3.209636 -0.000000 -0.000000
LeftFoot -2.896774 0.746544 -11.867821
LeftToeBase 6.682043 -0.000000 -0.000000
RightUpLeg 23.457213 -1.563834 -17.239964
RightLeg 13.204884 -0.000000 -0.000000
RightFoot -7.382019 2.103010 18.796538
RightToeBase -6.384118 -0.000000 0.000000
1484
root 0.183147 36.250079 2.618730 201.526158 -84.372723 -219.841635
Spine 27.865645 5.210763 -1.052860
Head 10.476121 23.450692 -0.458456
LeftShoulder -9.129746 11.575926 24.382182
LeftArm 13.243109 -26.841010 -41.642605
LeftForeArm 15.128148 0.000000 25.901206
LeftHand -15.351927 -0.000000 -8.276270
LeftHandThumb1 -26.253704 0.000000 33.147579
RightShoulder -28.198246 -42.564045 -1.230222
RightArm 49.470253 34.827265 69.227581
RightForeArm 13.072077 -0.000000 7.449944
RightHand -1.790681 0.000000 -1.238688
RightHandThumb1 -24.326973 -0.000000 -32.862282
LeftUpLeg 15.888150 10.169771 2.305093
LeftLeg 3.545328 -0.000000 -0.000000
LeftFoot -3.069192 0.648349 -12.550691
LeftToeBase 5.283885 -0.000000 -0.000000
RightUpLeg 23.379396 -1.987199 -17.399576
RightLeg 12.832790 -0.000000 -0.000000
RightFoot -8.075767 1.857678 19.219239
RightToeBase -5.170016 -0.000000 0.000000
1485
root 0.297117 36.217566 2.482729 206.883074 -84.522200 -224.957362
Spine 27.576731 5.140219 -1.364925
Head 10.239052 23.653316 -1.098526
LeftShoulder -9.117847 11.402954 24.370961
LeftArm 13.130955 -27.827986 -41.105479
LeftForeArm 15.129011 -0.000000 25.670444
LeftHand -15.624235 -0.000000 -7.959444
LeftHandThumb1 -26.253704 0.000000 33.147579
RightShoulder -28.227985 -42.594015 -1.691449
RightArm 49.274159 35.488046 68.623863
RightForeArm 12.968621 0.000000 7.537348
RightHand -1.727934 0.000000 -0.946898
RightHandThumb1 -24.326973 -0.000000 -32.862282
LeftUpLeg 15.273894 9.869214 2.111245
LeftLeg 3.773377 -0.000000 -0.000000
LeftFoot -3.122217 0.557345 -13.131829
LeftToeBase 3.764328 -0.000000 -0.000000
RightUpLeg 23.499391 -2.617265 -17.683171
RightLeg 12.276869 -0.000000 -0.000000
RightFoot -8.627725 2.126994 19.680679
RightToeBase -4.236834 -0.000000 0.000000
1486
root 0.413148 36.186493 2.344982 212.261885 -84.653327 -230.114129
Spine 27.310922 5.085925 -1.615091
Head 10.040095 23.823537 -1.769794
LeftShoulder -9.076846 11.194848 24.444007
LeftArm 13.137854 -28.906453 -40.818459
LeftForeArm 15.160302 0.000000 25.360330
LeftHand -15.726994 -0.000000 -7.755725
LeftHandThumb1 -26.253704 0.000000 33.147579
RightShoulder -28.250479 -42.609638 -2.153091
RightArm 49.196625 36.311481 68.232920
RightForeArm 12.456442 -0.000000 7.562061
RightHand -1.771991 -0.000000 -0.477786
RightHandThumb1 -24.326973 -0.000000 -32.862282
LeftUpLeg 14.700430 9.699555 2.000105
LeftLeg 3.973806 -0.000000 -0.000000
LeftFoot -3.151641 0.298234 -13.659459
LeftToeBase 2.217485 -0.000000 -0.000000
RightUpLeg 23.714782 -3.308012 -17.934837
RightLeg 11.610805 -0.000000 -0.000000
RightFoot -9.055890 2.409808 20.025919
RightToeBase -3.304029 -0.000000 0.000000
1487
root 0.517643 36.157618 2.205613 217.090968 -84.717787 -234.897116
Spine 27.246617 5.096497 -1.796225
Head 9.817264 23.922543 -2.445609
LeftShoulder -9.032396 10.982685 24.549313
LeftArm 13.151196 -29.885170 -40.581769
LeftForeArm 15.353095 -0.000000 25.120261
LeftHand -15.826775 -0.000000 -7.721002
LeftHandThumb1 -26.253704 0.000000 33.147579
RightShoulder -28.287846 -42.617870 -2.598825
RightArm 48.797157 36.832647 67.391634
RightForeArm 12.476669 0.000000 7.696415
RightHand -1.726924 -0.000000 -0.195657
RightHandThumb1 -24.326973 -0.000000 -32.862282
LeftUpLeg 14.401280 9.676749 1.989644
LeftLeg 4.064968 -0.000000 -0.000000
LeftFoot -3.139129 -0.105469 -14.157180
LeftToeBase 0.223459 -0.000000 -0.000000
RightUpLeg 24.195082 -3.967350 -18.208458
RightLeg 10.719880 -0.000000 -0.000000
RightFoot -9.399134 2.574162 20.231142
RightToeBase -2.201070 -0.000000 0.000000
1488
root 0.636961 36.126185 2.066205 222.135375 -84.767461 -239.684821
Spine 26.953927 5.081645 -1.964603
Head 9.628211 24.009850 -3.072042
LeftShoulder -8.980440 10.777754 24.628715
LeftArm 13.136528 -30.597200 -40.283877
LeftForeArm 15.303714 -0.000000 24.894118
LeftHand -15.987528 -0.000000 -7.609090
LeftHandThumb1 -26.253704 0.000000 33.147579
RightShoulder -28.277837 -42.628446 -3.053360
RightArm 48.408293 37.406035 66.581950
RightForeArm 12.340765 -0.000000 7.776974
RightHand -1.840219 0.000000 0.255717
RightHandThumb1 -24.326973 -0.000000 -32.862282
LeftUpLeg 13.866424 9.626047 1.950808
LeftLeg 4.150014 -0.000000 -0.000000
LeftFoot -3.228514 -0.424231 -14.730271
LeftToeBase -2.108391 -0.000000 0.000000
RightUpLeg 24.446466 -4.858856 -18.517577
RightLeg 9.811595 -0.000000 -0.000000
RightFoot -9.672462 2.984281 20.366713
RightToeBase -1.418879 -0.000000 0.000000
